<?xml version="1.0" encoding="utf-8"?>
<svg width="328px" height="65.84375px" viewBox="0 0 328 65.84375" version="1.1" xmlns:xlink="http://www.w3.org/1999/xlink" xmlns="http://www.w3.org/2000/svg">
  <defs>
    <filter filterUnits="userSpaceOnUse" color-interpolation-filters="sRGB" id="filter_1">
      <feFlood flood-opacity="0" result="BackgroundImageFix" />
      <feBlend mode="normal" in="SourceGraphic" in2="BackgroundImageFix" result="shape" />
      <feColorMatrix in="SourceAlpha" type="matrix" values="0 0 0 0 0 0 0 0 0 0 0 0 0 0 0 0 0 0 128 0" result="hardAlpha" />
      <feOffset dx="23" dy="34" />
      <feGaussianBlur stdDeviation="2" />
      <feComposite in2="hardAlpha" operator="arithmetic" k2="-1" k3="1" />
      <feColorMatrix type="matrix" values="0 0 0 0 0.03137255 0 0 0 0 0.03137255 0 0 0 0 0.9647059 0 0 0 0.49803922 0" />
      <feBlend mode="normal" in2="shape" result="effect0_innerShadow" />
    </filter>
    <g transform="translate(42.591812, 12.046875)" id="path_1">
      <path d="M29.6719 51.7969L25.7344 51.7969L25.7344 36.4688L8.34375 36.4688L8.34375 51.7969L4.40625 51.7969L4.40625 18.1875L8.34375 18.1875L8.34375 32.9297L25.7344 32.9297L25.7344 18.1875L29.6719 18.1875L29.6719 51.7969Z" />
    </g>
    <g transform="translate(76.66994, 20.679688)" id="path_2">
      <path d="M19.3164 33.9648L5.19531 33.9648Q5.27344 37.3047 6.99219 39.1211Q8.71094 40.9375 11.7188 40.9375Q15.0977 40.9375 17.9297 38.7109L17.9297 41.7188Q15.293 43.6328 10.957 43.6328Q6.71875 43.6328 4.29688 40.9082Q1.875 38.1836 1.875 33.2422Q1.875 28.5742 4.52148 25.6348Q7.16797 22.6953 11.0938 22.6953Q15.0195 22.6953 17.168 25.2344Q19.3164 27.7734 19.3164 32.2852L19.3164 33.9648ZM16.0352 31.25Q16.0156 28.4766 14.6973 26.9336Q13.3789 25.3906 11.0352 25.3906Q8.76953 25.3906 7.1875 27.0117Q5.60547 28.6328 5.23438 31.25L16.0352 31.25ZM38.4766 43.1641L35.2734 43.1641L35.2734 40.0391L35.1953 40.0391Q33.1055 43.6328 29.043 43.6328Q26.0547 43.6328 24.3652 42.0508Q22.6758 40.4688 22.6758 37.8516Q22.6758 32.2461 29.2773 31.3281L35.2734 30.4883Q35.2734 25.3906 31.1523 25.3906Q27.5391 25.3906 24.6289 27.8516L24.6289 24.5703Q27.5781 22.6953 31.4258 22.6953Q38.4766 22.6953 38.4766 30.1563L38.4766 43.1641ZM35.2734 33.0469L30.4492 33.7109Q28.2227 34.0234 27.0898 34.8145Q25.957 35.6055 25.957 37.6172Q25.957 39.082 27.002 40.0098Q28.0469 40.9375 29.7852 40.9375Q32.168 40.9375 33.7207 39.2676Q35.2734 37.5977 35.2734 35.0391L35.2734 33.0469ZM47.7148 43.1641L44.5117 43.1641L44.5117 13.5547L47.7148 13.5547L47.7148 43.1641ZM63.4766 42.9688Q62.3438 43.5938 60.4883 43.5938Q55.2344 43.5938 55.2344 37.7344L55.2344 25.8984L51.7969 25.8984L51.7969 23.1641L55.2344 23.1641L55.2344 18.2813L58.4375 17.2461L58.4375 23.1641L63.4766 23.1641L63.4766 25.8984L58.4375 25.8984L58.4375 37.168Q58.4375 39.1797 59.1211 40.0391Q59.8047 40.8984 61.3867 40.8984Q62.5977 40.8984 63.4766 40.2344L63.4766 42.9688ZM84.3555 43.1641L81.1523 43.1641L81.1523 31.6406Q81.1523 25.3906 76.5039 25.3906Q74.1602 25.3906 72.5586 27.1973Q70.957 29.0039 70.957 31.8359L70.957 43.1641L67.7539 43.1641L67.7539 13.5547L70.957 13.5547L70.957 26.4844L71.0352 26.4844Q73.3398 22.6953 77.5977 22.6953Q84.3555 22.6953 84.3555 30.8398L84.3555 43.1641ZM105.664 43.1641L90.8203 43.1641L90.8203 15.1563L105.039 15.1563L105.039 18.125L94.1016 18.125L94.1016 27.4414L104.219 27.4414L104.219 30.3906L94.1016 30.3906L94.1016 40.1953L105.664 40.1953L105.664 43.1641ZM127.227 43.1641L124.023 43.1641L124.023 31.7578Q124.023 25.3906 119.375 25.3906Q116.973 25.3906 115.4 27.1973Q113.828 29.0039 113.828 31.7578L113.828 43.1641L110.625 43.1641L110.625 23.1641L113.828 23.1641L113.828 26.4844L113.906 26.4844Q116.172 22.6953 120.469 22.6953Q123.75 22.6953 125.488 24.8145Q127.227 26.9336 127.227 30.9375L127.227 43.1641ZM143.691 26.4063Q142.852 25.7617 141.27 25.7617Q139.219 25.7617 137.842 27.6953Q136.465 29.6289 136.465 32.9688L136.465 43.1641L133.262 43.1641L133.262 23.1641L136.465 23.1641L136.465 27.2852L136.543 27.2852Q137.227 25.1758 138.633 23.9941Q140.039 22.8125 141.777 22.8125Q143.027 22.8125 143.691 23.0859L143.691 26.4063Z" />
    </g>
    <g transform="translate(220.59572, 20.679688)" id="path_3">
      <path d="M11.6016 43.6328Q7.16797 43.6328 4.52148 40.8301Q1.875 38.0273 1.875 33.3984Q1.875 28.3594 4.62891 25.5273Q7.38281 22.6953 12.0703 22.6953Q16.543 22.6953 19.0527 25.4492Q21.5625 28.2031 21.5625 33.0859Q21.5625 37.8711 18.8574 40.752Q16.1523 43.6328 11.6016 43.6328ZM11.8359 25.3906Q8.75 25.3906 6.95313 27.4902Q5.15625 29.5898 5.15625 33.2813Q5.15625 36.8359 6.97266 38.8867Q8.78906 40.9375 11.8359 40.9375Q14.9414 40.9375 16.6113 38.9258Q18.2812 36.9141 18.2813 33.2031Q18.2812 29.4531 16.6113 27.4219Q14.9414 25.3906 11.8359 25.3906Z" />
    </g>
    <g transform="translate(244.03322, 20.679688)" id="path_4">
      <path d="M6.44531 43.1641L3.24219 43.1641L3.24219 13.5547L6.44531 13.5547L6.44531 43.1641ZM16.1328 43.1641L12.9297 43.1641L12.9297 13.5547L16.1328 13.5547L16.1328 43.1641Z" />
    </g>
    <path d="M26 56L281 56" id="path_5" />
    <clipPath id="clip_1">
      <use xlink:href="#path_5" />
    </clipPath>
  </defs>
  <g id="Group">
    <path d="M0 0L283 0L283 64L0 64L0 0Z" id="Rectangle" fill="#EEE6D9" fill-opacity="0" fill-rule="evenodd" stroke="none" />
    <g id="Group" transform="translate(21 0)">
      <g id="HealthEnroll">
        <g id="H-ealthEnr-o-ll" filter="url(#filter_1)">
          <use stroke="none" fill="#0505F8" fill-opacity="0" xlink:href="#path_1" />
          <use xlink:href="#path_1" fill="none" stroke="#0D1DFF" stroke-width="2" />
        </g>
        <g id="H-ealthEnr-o-ll" filter="url(#filter_1)">
          <use stroke="none" fill="#0505F8" fill-opacity="0" xlink:href="#path_2" />
          <use xlink:href="#path_2" fill="none" stroke="#0D1DFF" stroke-width="2" />
        </g>
        <g id="H-ealthEnr-o-ll" filter="url(#filter_1)">
          <use stroke="none" fill="#0505F8" fill-opacity="0" xlink:href="#path_3" />
          <use xlink:href="#path_3" fill="none" stroke="#0D1DFF" stroke-width="2" />
        </g>
        <g id="H-ealthEnr-o-ll" filter="url(#filter_1)">
          <use stroke="none" fill="#0505F8" fill-opacity="0" xlink:href="#path_4" />
          <use xlink:href="#path_4" fill="none" stroke="#0D1DFF" stroke-width="2" />
        </g>
      </g>
    </g>
    <path d="M14 32.5C14 19.5213 24.5213 9 37.5 9C50.4787 9 61 19.5213 61 32.5C61 45.4787 50.4787 56 37.5 56C24.5213 56 14 45.4787 14 32.5Z" id="Oval" fill="#2E0AFE" fill-rule="evenodd" stroke="none" />
    <g id="Line">
      <g clip-path="url(#clip_1)">
        <use xlink:href="#path_5" fill="none" stroke="#2E0AFE" stroke-width="6" stroke-linecap="square" />
      </g>
    </g>
  </g>
</svg>